<mxfile host="app.diagrams.net" modified="2023-05-17T13:18:23.545Z" agent="Mozilla/5.0 (X11; Linux x86_64) AppleWebKit/537.36 (KHTML, like Gecko) Chrome/94.0.4606.81 Safari/537.36" version="21.3.2" etag="vrxEHEyLoa2uWRh_CLtg" type="github">
  <diagram name="Page-1" id="Hd6gsXWT8gVjTQKCa5iF">
    <mxGraphModel>
      <root>
        <mxCell id="0" />
        <mxCell id="1" parent="0" />
      </root>
    </mxGraphModel>
  </diagram>
</mxfile>
